[
  {
    "#name": "event",
    "count": 1,
    "event-id": 18,
    "event-pts": 1975601994,
    "event-type": "out",
    "packet-index": 3859,
    "progress": "pending",
    "splice-pid": 1055,
    "tag": "",
    "time-to-event-ms": 9294
  },
  {
    "#name": "splice_information_table",
    "#nodes": [
      {
        "#name": "metadata",
        "#nodes": [
          {
            "#name": "section",
            "#nodes": [
              "FC 30 2F 00 00 00 00 00 00 FF FF F0 14 05 00 00 00 12 7F EF FE 75 C1 4B 4A 7E 00 66 FF 30 00 01 12 FF 00 0A 00 08 43 55 45 49 00 00 00 12 EA A8 47 3F"
            ]
          }
        ],
        "pid": 1055
      },
      {
        "#name": "splice_insert",
        "#nodes": [
          {
            "#name": "break_duration",
            "auto_return": false,
            "duration": 6750000
          }
        ],
        "avail_num": 18,
        "avails_expected": 255,
        "out_of_network": true,
        "pts_time": 1975601994,
        "splice_event_cancel": false,
        "splice_event_id": 18,
        "splice_immediate": false,
        "unique_program_id": 1
      },
      {
        "#name": "splice_avail_descriptor",
        "identifier": 1129661769,
        "provider_avail_id": 18
      }
    ],
    "protocol_version": 0,
    "pts_adjustment": 0,
    "tier": 4095
  },
  {
    "#name": "event",
    "count": 2,
    "event-id": 18,
    "event-pts": 1975601994,
    "event-type": "out",
    "packet-index": 7871,
    "progress": "pending",
    "splice-pid": 1055,
    "tag": "",
    "time-to-event-ms": 7358
  },
  {
    "#name": "splice_information_table",
    "#nodes": [
      {
        "#name": "metadata",
        "#nodes": [
          {
            "#name": "section",
            "#nodes": [
              "FC 30 2F 00 00 00 00 00 00 FF FF F0 14 05 00 00 00 12 7F EF FE 75 C1 4B 4A 7E 00 66 FF 30 00 01 12 FF 00 0A 00 08 43 55 45 49 00 00 00 12 EA A8 47 3F"
            ]
          }
        ],
        "pid": 1055
      },
      {
        "#name": "splice_insert",
        "#nodes": [
          {
            "#name": "break_duration",
            "auto_return": false,
            "duration": 6750000
          }
        ],
        "avail_num": 18,
        "avails_expected": 255,
        "out_of_network": true,
        "pts_time": 1975601994,
        "splice_event_cancel": false,
        "splice_event_id": 18,
        "splice_immediate": false,
        "unique_program_id": 1
      },
      {
        "#name": "splice_avail_descriptor",
        "identifier": 1129661769,
        "provider_avail_id": 18
      }
    ],
    "protocol_version": 0,
    "pts_adjustment": 0,
    "tier": 4095
  },
  {
    "#name": "event",
    "count": 3,
    "event-id": 18,
    "event-pts": 1975601994,
    "event-type": "out",
    "packet-index": 11882,
    "progress": "pending",
    "splice-pid": 1055,
    "tag": "",
    "time-to-event-ms": 5415
  },
  {
    "#name": "splice_information_table",
    "#nodes": [
      {
        "#name": "metadata",
        "#nodes": [
          {
            "#name": "section",
            "#nodes": [
              "FC 30 2F 00 00 00 00 00 00 FF FF F0 14 05 00 00 00 12 7F EF FE 75 C1 4B 4A 7E 00 66 FF 30 00 01 12 FF 00 0A 00 08 43 55 45 49 00 00 00 12 EA A8 47 3F"
            ]
          }
        ],
        "pid": 1055
      },
      {
        "#name": "splice_insert",
        "#nodes": [
          {
            "#name": "break_duration",
            "auto_return": false,
            "duration": 6750000
          }
        ],
        "avail_num": 18,
        "avails_expected": 255,
        "out_of_network": true,
        "pts_time": 1975601994,
        "splice_event_cancel": false,
        "splice_event_id": 18,
        "splice_immediate": false,
        "unique_program_id": 1
      },
      {
        "#name": "splice_avail_descriptor",
        "identifier": 1129661769,
        "provider_avail_id": 18
      }
    ],
    "protocol_version": 0,
    "pts_adjustment": 0,
    "tier": 4095
  },
  {
    "#name": "event",
    "count": 3,
    "event-id": 18,
    "event-pts": 1975601994,
    "event-type": "out",
    "packet-index": 23022,
    "pre-roll-ms": 9557,
    "progress": "occurred",
    "splice-pid": 1055,
    "status": "normal",
    "tag": "",
    "time-to-event-ms": 0
  },
  {
    "#name": "event",
    "count": 1,
    "event-id": 18,
    "event-pts": 1982351994,
    "event-type": "in",
    "packet-index": 34269,
    "progress": "pending",
    "splice-pid": 1055,
    "tag": "",
    "time-to-event-ms": 9530
  },
  {
    "#name": "splice_information_table",
    "#nodes": [
      {
        "#name": "metadata",
        "#nodes": [
          {
            "#name": "section",
            "#nodes": [
              "FC 30 2A 00 00 00 00 00 00 FF FF F0 0F 05 00 00 00 12 7F 4F FE 76 28 4A 7A 00 01 12 FF 00 0A 00 08 43 55 45 49 00 00 00 12 1E D6 4B DB"
            ]
          }
        ],
        "pid": 1055
      },
      {
        "#name": "splice_insert",
        "avail_num": 18,
        "avails_expected": 255,
        "out_of_network": false,
        "pts_time": 1982351994,
        "splice_event_cancel": false,
        "splice_event_id": 18,
        "splice_immediate": false,
        "unique_program_id": 1
      },
      {
        "#name": "splice_avail_descriptor",
        "identifier": 1129661769,
        "provider_avail_id": 18
      }
    ],
    "protocol_version": 0,
    "pts_adjustment": 0,
    "tier": 4095
  },
  {
    "#name": "event",
    "count": 2,
    "event-id": 18,
    "event-pts": 1982351994,
    "event-type": "in",
    "packet-index": 38282,
    "progress": "pending",
    "splice-pid": 1055,
    "tag": "",
    "time-to-event-ms": 7624
  },
  {
    "#name": "splice_information_table",
    "#nodes": [
      {
        "#name": "metadata",
        "#nodes": [
          {
            "#name": "section",
            "#nodes": [
              "FC 30 2A 00 00 00 00 00 00 FF FF F0 0F 05 00 00 00 12 7F 4F FE 76 28 4A 7A 00 01 12 FF 00 0A 00 08 43 55 45 49 00 00 00 12 1E D6 4B DB"
            ]
          }
        ],
        "pid": 1055
      },
      {
        "#name": "splice_insert",
        "avail_num": 18,
        "avails_expected": 255,
        "out_of_network": false,
        "pts_time": 1982351994,
        "splice_event_cancel": false,
        "splice_event_id": 18,
        "splice_immediate": false,
        "unique_program_id": 1
      },
      {
        "#name": "splice_avail_descriptor",
        "identifier": 1129661769,
        "provider_avail_id": 18
      }
    ],
    "protocol_version": 0,
    "pts_adjustment": 0,
    "tier": 4095
  },
  {
    "#name": "event",
    "count": 3,
    "event-id": 18,
    "event-pts": 1982351994,
    "event-type": "in",
    "packet-index": 42295,
    "progress": "pending",
    "splice-pid": 1055,
    "tag": "",
    "time-to-event-ms": 6372
  },
  {
    "#name": "splice_information_table",
    "#nodes": [
      {
        "#name": "metadata",
        "#nodes": [
          {
            "#name": "section",
            "#nodes": [
              "FC 30 2A 00 00 00 00 00 00 FF FF F0 0F 05 00 00 00 12 7F 4F FE 76 28 4A 7A 00 01 12 FF 00 0A 00 08 43 55 45 49 00 00 00 12 1E D6 4B DB"
            ]
          }
        ],
        "pid": 1055
      },
      {
        "#name": "splice_insert",
        "avail_num": 18,
        "avails_expected": 255,
        "out_of_network": false,
        "pts_time": 1982351994,
        "splice_event_cancel": false,
        "splice_event_id": 18,
        "splice_immediate": false,
        "unique_program_id": 1
      },
      {
        "#name": "splice_avail_descriptor",
        "identifier": 1129661769,
        "provider_avail_id": 18
      }
    ],
    "protocol_version": 0,
    "pts_adjustment": 0,
    "tier": 4095
  },
  {
    "#name": "event",
    "count": 3,
    "event-id": 18,
    "event-pts": 1982351994,
    "event-type": "in",
    "packet-index": 53721,
    "pre-roll-ms": 9701,
    "progress": "occurred",
    "splice-pid": 1055,
    "status": "normal",
    "tag": "",
    "time-to-event-ms": 0
  }
]
